<?xml version="1.0" standalone="no"?>
<!DOCTYPE svg PUBLIC "-//W3C//DTD SVG 20010904//EN"
 "http://www.w3.org/TR/2001/REC-SVG-20010904/DTD/svg10.dtd">
<svg version="1.0" xmlns="http://www.w3.org/2000/svg"
 width="213.000000pt" height="213.000000pt" viewBox="0 0 213.000000 213.000000"
 preserveAspectRatio="xMidYMid meet">
<metadata>
Created by potrace 1.14, written by Peter Selinger 2001-2017
</metadata>
<g transform="translate(0.000000,213.000000) scale(0.100000,-0.100000)"
fill="#000000" stroke="none">
<path d="M785 1411 l-30 -6 0 -110 c0 -63 4 -113 10 -117 5 -4 26 -8 46 -8 62
0 101 57 63 95 -15 15 -15 18 5 39 34 36 20 104 -22 107 -7 0 -19 2 -27 3 -8
1 -28 0 -45 -3z m85 -47 c17 -17 2 -39 -39 -62 -21 -12 -42 -22 -45 -22 -3 0
-5 20 -4 45 1 36 5 45 22 47 34 5 56 2 66 -8z m-19 -130 c11 -14 10 -18 -6
-30 -23 -17 -55 -18 -56 -1 0 6 -2 20 -4 30 -4 23 47 24 66 1z"/>
<path d="M1693 1385 c-18 -8 -33 -19 -33 -25 0 -5 -7 -10 -15 -10 -26 0 -108
-59 -129 -93 -11 -17 -23 -34 -27 -37 -4 -3 1 -26 12 -51 16 -36 32 -53 77
-80 53 -32 62 -34 144 -34 76 0 88 -2 88 -17 0 -14 -5 -15 -30 -8 -30 9 -51 7
-91 -5 -30 -10 -20 -59 12 -62 13 -1 30 6 37 15 11 14 12 13 12 -6 0 -15 -6
-22 -19 -22 -12 0 -21 -9 -25 -25 -6 -24 -36 -36 -36 -15 0 6 -7 10 -15 10 -8
0 -15 -5 -15 -11 0 -5 -16 2 -35 17 -30 23 -36 24 -41 10 -11 -28 6 -86 34
-116 36 -38 157 -100 197 -100 18 0 38 7 45 15 7 8 22 15 33 15 11 0 40 9 63
21 40 19 45 19 74 4 30 -16 31 -15 60 14 51 50 34 89 -36 85 l-41 -2 10 29 c9
23 8 35 -6 58 -16 28 -16 29 1 24 21 -5 77 43 61 52 -5 4 -32 7 -58 7 -47 -1
-49 1 -55 30 -3 18 -1 37 6 45 9 11 3 21 -26 48 -32 29 -36 37 -27 54 12 22
-4 45 -39 56 -11 3 -20 10 -20 15 0 14 22 60 29 60 3 0 17 10 31 21 l25 21
-55 -6 c-31 -3 -60 -12 -66 -20 -6 -9 -22 -14 -40 -11 -16 2 -38 4 -48 4 -18
1 -18 2 -1 21 21 23 20 24 -22 5z"/>
<path d="M1379 1373 c-80 -33 -105 -119 -50 -173 35 -36 72 -33 115 10 38 38
48 113 19 149 -25 30 -40 33 -84 14z m71 -42 c27 -52 -15 -131 -70 -131 -52 0
-78 66 -42 107 39 45 94 56 112 24z"/>
<path d="M1035 1364 c-60 -30 -87 -131 -45 -169 24 -22 78 -14 112 16 25 22
22 22 -44 -4 -60 -24 -88 55 -38 108 28 30 67 38 80 16 7 -14 10 -12 18 9 16
41 -25 53 -83 24z"/>
<path d="M1255 1368 c-3 -7 -3 -28 -1 -46 4 -37 1 -40 -48 -47 -36 -6 -36 -6
-37 29 -2 55 -3 59 -16 63 -8 3 -10 -14 -8 -59 2 -35 4 -75 4 -90 1 -17 7 -28
15 -28 9 0 12 8 8 25 -2 14 0 25 4 25 5 0 26 4 46 9 21 5 37 6 36 2 -3 -24 4
-51 12 -51 7 0 10 32 8 86 -3 81 -12 112 -23 82z"/>
<path d="M925 1293 c2 -43 4 -84 5 -90 0 -7 5 -13 11 -13 10 0 12 140 1 168
-12 34 -21 3 -17 -65z"/>
<path d="M1185 1140 c-22 -15 -26 -20 -14 -25 8 -3 26 -2 40 3 15 6 30 5 40
-1 18 -11 73 18 63 34 -3 5 -16 2 -28 -6 -21 -14 -24 -14 -29 0 -8 20 -36 19
-72 -5z"/>
<path d="M135 1123 c-75 -40 -123 -126 -119 -212 4 -65 31 -99 84 -104 62 -6
185 52 161 76 -5 5 -26 -1 -53 -17 -56 -33 -92 -33 -123 -1 -47 46 -28 139 37
188 42 31 104 42 112 20 3 -8 4 -19 0 -24 -12 -20 16 -8 30 13 20 29 20 64 0
72 -29 11 -99 5 -129 -11z"/>
<path d="M404 1107 c-71 -27 -124 -89 -124 -146 0 -43 32 -104 65 -121 102
-55 231 94 185 214 -22 60 -62 77 -126 53z m72 -45 c45 -30 40 -113 -11 -165
-56 -57 -106 -52 -140 13 -21 41 -19 64 10 98 40 48 110 75 141 54z"/>
<path d="M715 1058 c-16 -34 -35 -63 -41 -65 -7 -2 -26 20 -44 49 -33 54 -49
70 -61 63 -7 -5 -1 -224 7 -262 5 -24 33 -32 35 -10 1 16 -2 104 -5 145 l-2
33 23 -28 c12 -16 22 -31 23 -35 1 -21 32 -4 63 34 l35 42 1 -89 c1 -86 9
-114 29 -101 9 5 6 246 -3 274 -9 27 -31 8 -60 -50z"/>
<path d="M817 1106 c-3 -8 -4 -27 -1 -42 2 -16 6 -69 8 -119 2 -49 5 -96 5
-102 1 -7 8 -13 17 -13 13 0 15 18 13 133 -2 121 -8 157 -29 157 -4 0 -10 -6
-13 -14z"/>
<path d="M887 1113 c-2 -5 -3 -17 -1 -28 2 -11 5 -68 7 -128 2 -59 7 -110 11
-115 4 -4 44 -7 87 -8 67 0 82 2 90 17 5 10 9 20 9 23 0 3 -36 6 -80 6 l-80 0
-1 93 c-1 50 -1 98 0 105 4 25 -31 54 -42 35z"/>
<path d="M1411 1098 c-101 -50 -129 -136 -72 -215 36 -49 71 -59 122 -32 55
27 82 72 87 138 2 43 -2 63 -17 89 -12 17 -26 32 -33 33 -7 0 -21 2 -30 4 -9
2 -35 -6 -57 -17z m93 -47 c49 -54 -11 -180 -87 -181 -37 0 -77 43 -77 84 0
36 37 81 84 102 42 18 60 17 80 -5z"/>
<path d="M1186 1078 c-38 -58 -91 -224 -75 -234 6 -3 17 12 26 34 15 39 29 50
90 67 19 5 23 1 30 -35 4 -23 12 -41 18 -41 12 1 13 102 1 120 -6 7 -17 34
-26 59 -17 54 -41 65 -64 30z m54 -80 c0 -10 -6 -18 -12 -18 -7 0 -23 -3 -35
-6 -28 -8 -29 2 -2 46 20 32 22 33 35 15 8 -10 14 -27 14 -37z"/>
<path d="M1149 813 c0 -5 -2 -18 -5 -30 -2 -12 1 -25 6 -28 9 -5 14 6 12 26
-1 3 6 6 14 6 10 0 11 -4 4 -11 -5 -5 -10 -13 -10 -17 0 -11 164 -6 172 6 5 7
8 6 8 -1 0 -7 20 -11 52 -10 43 2 54 6 56 20 4 21 -16 38 -32 28 -17 -10 -80
-5 -84 7 -7 21 -22 11 -23 -16 -1 -17 -3 -21 -6 -10 -2 9 -13 17 -24 17 -13 0
-18 -4 -13 -12 6 -10 4 -10 -7 0 -7 6 -21 12 -30 12 -10 0 -20 -6 -22 -12 -4
-10 -6 -10 -6 0 -1 6 -13 12 -27 12 -14 0 -23 4 -19 10 3 6 1 10 -4 10 -6 0
-11 -3 -12 -7z m148 -45 c-3 -8 -6 -5 -6 6 -1 11 2 17 5 13 3 -3 4 -12 1 -19z"/>
</g>
</svg>
