<?xml version="1.0" standalone="no"?>
<!DOCTYPE svg PUBLIC "-//W3C//DTD SVG 20010904//EN"
 "http://www.w3.org/TR/2001/REC-SVG-20010904/DTD/svg10.dtd">
<svg version="1.0" xmlns="http://www.w3.org/2000/svg"
 width="1256.000000pt" height="1256.000000pt" viewBox="0 0 1256.000000 1256.000000"
 preserveAspectRatio="xMidYMid meet">
<metadata>
Created by potrace 1.14, written by Peter Selinger 2001-2017
</metadata>
<g transform="translate(0.000000,1256.000000) scale(0.100000,-0.100000)"
fill="#000000" stroke="none">
<path d="M8228 11425 c-2 -1 -21 -5 -43 -8 -206 -28 -459 -216 -730 -541 -22
-27 -47 -57 -56 -67 -8 -10 -24 -30 -35 -44 -10 -15 -24 -33 -31 -40 -7 -7
-64 -84 -128 -171 -64 -88 -124 -169 -133 -181 -23 -30 -281 -398 -332 -473
-130 -190 -430 -599 -558 -760 -24 -30 -49 -62 -55 -70 -30 -39 -133 -166
-142 -176 -5 -6 -25 -29 -43 -52 -19 -23 -41 -50 -50 -60 -105 -120 -133 -153
-172 -196 -172 -193 -461 -480 -655 -651 -38 -33 -73 -65 -79 -70 -28 -26
-271 -228 -356 -295 -52 -41 -97 -77 -100 -81 -6 -7 -412 -308 -526 -391 -84
-60 -244 -173 -501 -353 -315 -221 -667 -482 -734 -545 -8 -8 -43 -39 -77 -69
-167 -143 -306 -306 -379 -441 -77 -145 -100 -312 -62 -451 26 -95 85 -217
144 -297 43 -59 45 -64 31 -90 -22 -44 -46 -154 -46 -213 1 -68 14 -127 44
-194 25 -53 112 -175 151 -210 97 -88 156 -130 240 -169 27 -13 79 -34 115
-45 64 -21 76 -24 150 -38 46 -9 330 -10 398 -1 36 4 52 3 53 -5 11 -127 31
-185 100 -287 131 -197 366 -329 665 -375 87 -13 457 -14 514 -1 13 3 42 8 65
11 347 47 882 234 1284 447 146 77 226 121 263 145 21 12 40 23 43 23 3 0 36
20 75 45 39 25 73 45 76 45 19 0 521 345 675 464 36 28 81 62 99 76 18 14 38
30 44 35 6 6 45 37 86 70 67 52 267 221 280 235 3 3 43 39 90 80 246 217 602
577 820 830 30 35 60 68 65 74 30 33 212 253 247 299 20 26 104 134 126 162
32 40 158 214 202 280 30 44 58 82 63 83 4 2 7 10 7 17 0 7 3 15 8 17 6 3 102
145 127 189 6 10 49 82 96 161 171 281 329 594 430 851 39 98 117 316 124 347
2 8 15 56 29 105 71 251 101 457 101 695 0 175 -5 229 -36 365 -66 298 -267
557 -491 634 -66 23 -55 21 -142 21 -72 0 -75 1 -70 23 10 55 5 257 -10 352
-6 42 -20 104 -28 125 -3 8 -14 38 -23 65 -10 28 -22 55 -27 62 -5 7 -7 16 -4
22 3 5 -1 12 -10 15 -9 4 -14 13 -10 22 3 8 2 12 -3 9 -5 -3 -12 3 -16 14 -3
11 -19 36 -35 56 -16 21 -27 42 -23 48 3 5 1 7 -4 4 -13 -8 -46 27 -36 37 5 4
3 6 -2 5 -12 -4 -71 50 -68 62 2 5 -3 8 -10 6 -6 -1 -11 4 -9 11 1 8 -2 11 -8
7 -6 -3 -17 0 -25 7 -33 30 -45 38 -55 38 -5 0 -10 5 -10 11 0 5 -5 7 -10 4
-6 -3 -13 1 -16 9 -3 9 -10 13 -15 10 -5 -3 -9 0 -9 6 0 6 -4 9 -9 6 -12 -8
-42 4 -36 14 3 5 -4 6 -15 3 -12 -3 -20 0 -20 6 0 7 -4 10 -8 7 -5 -3 -30 -2
-58 2 -27 4 -76 4 -108 0 -33 -5 -62 -5 -65 0 -3 4 -40 33 -82 64 -151 113
-279 165 -420 172 -42 2 -79 3 -81 1z"/>
<path d="M11391 3042 c-26 -21 -34 -37 -38 -73 -5 -41 -2 -50 25 -80 29 -32
34 -34 97 -34 63 0 68 2 96 33 23 25 29 42 29 75 -1 70 -45 107 -127 107 -39
0 -56 -6 -82 -28z"/>
<path d="M1110 2533 l0 -483 100 0 100 0 0 483 0 482 -100 0 -100 1 0 -483z"/>
<path d="M9102 3010 c-4 -3 -8 -220 -7 -482 l0 -478 102 0 103 0 0 202 c0 184
2 206 21 244 27 56 73 85 137 86 68 0 110 -24 132 -75 15 -36 18 -72 18 -242
0 -110 1 -203 1 -207 1 -5 46 -8 102 -8 l101 0 -4 253 c-4 232 -5 256 -25 299
-27 59 -65 99 -123 129 -38 19 -61 23 -140 23 -84 0 -101 -3 -147 -27 -28 -14
-55 -32 -60 -39 -4 -7 -10 63 -13 157 l-5 170 -93 0 c-51 1 -96 -2 -100 -5z"/>
<path d="M400 2928 c-8 -18 -33 -75 -57 -126 -24 -52 -43 -95 -43 -97 0 -2
-15 -36 -34 -77 -19 -40 -66 -147 -106 -238 -40 -91 -90 -202 -112 -248 -21
-46 -38 -85 -38 -88 0 -2 48 -4 108 -4 l107 0 40 98 39 97 207 0 c114 0 211
-4 215 -8 4 -4 24 -47 44 -95 l36 -87 112 -3 111 -3 -30 68 c-16 37 -39 88
-50 113 -11 25 -89 198 -173 385 l-152 340 -106 3 -105 3 -13 -33z m139 -225
c12 -34 58 -146 81 -198 25 -56 38 -95 32 -96 -4 -1 -68 -2 -144 -3 l-136 -1
15 35 c28 68 105 255 114 278 12 32 23 27 38 -15z"/>
<path d="M5850 2505 l0 -455 333 2 332 3 1 83 1 82 -81 0 c-45 1 -147 1 -228
0 l-148 -1 0 371 0 370 -105 0 -105 0 0 -455z"/>
<path d="M1686 2743 c-94 -28 -168 -92 -208 -178 -19 -41 -23 -67 -23 -145 0
-85 3 -101 29 -153 90 -180 333 -239 509 -122 l29 18 -6 -52 c-12 -105 -62
-149 -178 -158 -79 -6 -182 18 -243 55 l-30 19 -38 -69 c-21 -38 -35 -73 -32
-78 11 -18 81 -49 156 -70 56 -15 100 -20 180 -19 217 3 330 77 374 244 12 47
15 124 15 387 l0 328 -95 0 -95 0 0 -40 c0 -39 -13 -54 -23 -27 -2 7 -30 26
-62 41 -68 35 -180 43 -259 19z m272 -189 c88 -67 80 -217 -14 -275 -71 -44
-190 -32 -242 24 -72 76 -57 210 29 261 68 40 166 36 227 -10z"/>
<path d="M3615 2743 c-28 -10 -65 -28 -82 -41 -17 -12 -33 -22 -36 -22 -2 0
-3 16 -1 35 l2 35 -98 0 -98 0 1 -350 0 -350 101 0 101 0 1 208 c0 207 0 209
27 254 29 50 68 72 124 70 47 -2 75 -11 93 -31 36 -38 40 -69 40 -287 l0 -215
102 3 102 3 1 205 c1 176 3 210 19 242 43 89 167 109 234 38 29 -32 34 -77 34
-297 l-1 -194 102 3 102 3 -1 240 c-1 221 -3 245 -23 297 -65 169 -289 221
-458 107 -23 -16 -43 -34 -46 -41 -2 -8 -18 1 -42 24 -54 52 -95 69 -178 74
-53 3 -85 0 -122 -13z"/>
<path d="M4859 2755 c-2 -2 -19 -5 -37 -8 -47 -8 -125 -37 -152 -57 l-23 -17
33 -64 c17 -35 33 -65 34 -67 2 -1 29 10 62 24 76 34 174 40 230 15 49 -22 63
-40 71 -85 l6 -36 -119 -1 c-127 -1 -126 0 -194 -19 -101 -27 -158 -111 -146
-213 7 -57 27 -94 66 -125 102 -79 285 -83 365 -7 39 36 43 35 39 -12 l-2 -33
97 0 97 0 -1 233 c-2 280 -12 326 -84 396 -52 50 -127 74 -237 77 -56 2 -104
1 -105 -1z m215 -416 c5 -5 9 -47 7 -70 -1 -23 -41 -63 -76 -76 -92 -36 -185
-3 -185 65 0 43 28 71 78 80 44 7 169 8 176 1z"/>
<path d="M6770 2744 c-30 -8 -59 -16 -65 -17 -19 -6 -95 -47 -95 -52 0 -6 60
-127 66 -134 1 -1 28 9 58 24 56 27 149 39 211 27 40 -7 90 -62 93 -100 l2
-32 -117 0 c-176 0 -262 -28 -311 -102 -23 -35 -27 -52 -27 -108 0 -57 4 -73
28 -107 16 -23 50 -53 80 -69 47 -26 61 -29 147 -29 101 0 137 12 191 61 l25
24 -2 -40 -1 -40 96 0 97 0 -2 233 c-1 244 -8 296 -47 352 -32 45 -57 65 -117
93 -45 21 -71 26 -155 28 -62 1 -121 -3 -155 -12z m270 -425 c9 -38 0 -65 -32
-97 -27 -29 -71 -46 -110 -45 -10 0 -29 1 -42 2 -35 2 -76 45 -76 79 0 65 53
89 194 86 55 -1 61 -3 66 -25z"/>
<path d="M7743 2742 c-28 -10 -68 -31 -88 -46 l-36 -28 4 41 4 41 -98 0 -99 0
0 -350 0 -350 100 0 100 0 0 186 c0 207 9 259 51 302 54 55 162 60 217 9 35
-33 42 -79 42 -294 l0 -203 99 0 c70 0 100 4 103 13 2 6 4 111 3 232 -2 265
-13 313 -83 383 -55 56 -99 73 -192 78 -56 4 -88 0 -127 -14z"/>
<path d="M8570 2750 c-180 -38 -293 -184 -286 -368 9 -204 169 -342 395 -342
88 0 210 47 251 97 25 30 50 67 50 75 0 3 -34 25 -75 48 l-75 41 -26 -31 c-36
-42 -75 -60 -132 -61 -81 -2 -153 47 -177 121 -15 46 -7 129 17 173 60 108
220 119 297 20 l20 -25 68 37 c88 47 89 49 68 82 -56 87 -148 134 -269 139
-44 2 -101 -1 -126 -6z"/>
<path d="M10200 2741 c-102 -32 -166 -87 -214 -181 -29 -58 -33 -78 -35 -149
-5 -189 105 -322 299 -362 60 -12 184 -7 242 10 41 13 130 70 135 87 2 6 -19
37 -48 68 -46 50 -53 55 -68 43 -63 -55 -191 -69 -268 -29 -42 22 -78 63 -85
96 -3 18 8 19 260 19 l262 -1 2 27 c0 14 2 33 2 41 3 31 -16 115 -36 156 -71
152 -271 230 -448 175z m183 -148 c36 -11 56 -25 78 -56 55 -76 53 -77 -141
-77 -112 0 -170 4 -170 10 0 21 33 75 57 95 28 23 78 43 108 43 11 0 42 -7 68
-15z"/>
<path d="M11147 2746 c-26 -7 -65 -27 -87 -45 -21 -17 -41 -31 -44 -31 -2 0
-3 12 -1 27 5 50 0 53 -101 53 l-94 0 0 -350 0 -350 100 0 c73 0 100 3 101 13
0 6 1 95 2 197 3 196 10 233 58 276 23 21 104 43 142 38 15 -2 27 0 28 4 3 25
4 159 1 170 -5 15 -43 14 -105 -2z"/>
<path d="M11915 2746 c-62 -14 -151 -51 -161 -67 -3 -5 1 -21 9 -36 8 -16 23
-45 33 -65 21 -43 25 -44 59 -22 62 41 202 52 261 22 40 -22 51 -36 59 -79 l7
-37 -144 -4 c-121 -3 -151 -7 -193 -26 -63 -29 -83 -48 -106 -97 -32 -70 -20
-158 28 -212 88 -96 300 -112 388 -28 19 18 35 27 36 21 1 -6 1 -23 1 -38 l1
-28 96 0 97 0 -2 233 c-1 132 -6 249 -13 273 -25 91 -105 169 -196 189 -61 14
-201 14 -260 1z m253 -405 c15 -1 16 -61 1 -94 -14 -30 -72 -63 -121 -70 -30
-4 -118 22 -118 35 0 2 -4 18 -9 36 -8 27 -6 36 13 58 17 21 35 28 81 33 33 3
78 5 100 4 22 -1 46 -2 53 -2z"/>
<path d="M2408 2743 c-7 -15 -1 -438 6 -477 25 -134 118 -212 264 -222 63 -5
87 -2 132 15 30 11 67 32 83 46 28 27 31 24 27 -27 l-2 -28 99 0 98 0 0 350 0
350 -101 0 -102 0 0 -199 c0 -223 -10 -267 -70 -310 -40 -28 -128 -32 -166 -8
-58 38 -61 52 -64 294 l-3 223 -99 0 c-54 0 -100 -3 -102 -7z"/>
<path d="M11378 2743 c0 -5 -2 -162 -3 -350 l-1 -343 101 0 102 0 0 350 0 350
-98 0 c-55 0 -100 -3 -101 -7z"/>
<path d="M4767 1822 c-16 -3 -17 -30 -17 -373 l0 -370 78 3 77 3 1 363 c0 225
-4 365 -10 369 -10 7 -101 10 -129 5z"/>
<path d="M8429 1820 l-22 -6 -1 -367 -1 -368 79 3 79 3 1 368 1 367 -25 1
c-14 0 -39 1 -57 2 -17 1 -42 0 -54 -3z"/>
<path d="M1512 1775 c-111 -34 -185 -97 -230 -193 -23 -49 -27 -70 -27 -152 0
-87 3 -101 32 -161 83 -167 283 -242 478 -178 59 20 145 78 145 99 0 5 -21 29
-47 53 l-47 45 -37 -30 c-94 -76 -237 -65 -313 23 -78 91 -66 246 23 322 81
67 225 64 299 -7 l28 -26 49 50 49 50 -24 25 c-32 34 -96 69 -153 83 -60 16
-171 14 -225 -3z"/>
<path d="M7897 1772 c-106 -38 -163 -116 -154 -213 9 -105 62 -148 237 -193
113 -29 142 -41 159 -68 19 -30 -2 -71 -43 -86 -68 -25 -220 -4 -278 38 -15
11 -29 20 -31 20 -6 0 -57 -108 -57 -119 0 -13 80 -50 142 -67 32 -8 92 -12
153 -11 87 2 108 6 158 30 88 43 128 109 121 201 -5 88 -66 141 -196 175 -148
39 -189 54 -198 72 -16 29 -11 54 15 79 48 45 166 39 286 -14 12 -5 20 0 28
21 6 15 17 43 25 60 15 33 15 33 -17 50 -85 43 -260 56 -350 25z"/>
<path d="M4160 1658 c-29 -68 -66 -150 -81 -183 -80 -176 -169 -379 -169 -387
0 -5 36 -8 81 -6 l80 3 31 73 30 72 162 0 162 0 30 -72 29 -73 87 -3 87 -3
-73 163 c-40 90 -83 186 -96 213 -12 28 -33 75 -47 105 -13 30 -41 92 -61 137
l-37 83 -81 0 -80 0 -54 -122z m188 -168 c29 -69 52 -128 52 -131 0 -4 -47 -7
-105 -7 -58 0 -105 4 -105 9 0 10 103 260 105 256 1 -1 25 -58 53 -127z"/>
<path d="M2164 1614 c-127 -38 -202 -133 -205 -260 -3 -154 109 -270 270 -279
130 -8 230 43 286 145 26 48 29 65 28 130 0 46 -7 90 -17 113 -29 67 -104 129
-183 152 -42 12 -138 12 -179 -1z m154 -133 c37 -15 72 -80 72 -132 -1 -56
-32 -113 -75 -133 -45 -22 -117 -16 -148 12 -31 27 -54 88 -51 133 8 108 100
162 202 120z"/>
<path d="M2896 1615 c-20 -7 -47 -20 -61 -29 -32 -21 -35 -20 -35 7 0 22 -3
23 -74 24 l-75 0 1 -269 0 -268 79 0 79 0 -1 160 c-1 140 1 164 18 192 23 40
56 58 104 58 46 0 78 -28 90 -77 5 -21 9 -96 8 -168 0 -71 0 -138 0 -147 1
-16 12 -18 79 -18 l77 0 1 163 c0 141 3 167 19 195 45 75 166 66 192 -15 5
-16 9 -99 8 -185 l0 -158 78 0 77 0 1 28 c2 117 -1 321 -6 346 -34 168 -229
228 -376 115 -35 -27 -36 -27 -50 -8 -37 52 -157 80 -233 54z"/>
<path d="M5200 1613 c-67 -17 -115 -54 -155 -118 -26 -43 -30 -57 -30 -124 0
-61 5 -86 25 -126 29 -57 92 -109 153 -126 83 -24 190 -7 239 38 17 15 18 15
18 -8 0 -150 -153 -191 -342 -91 -10 5 -68 -100 -61 -111 12 -20 102 -51 178
-62 143 -20 273 17 327 93 46 66 54 123 53 392 l0 245 -72 2 c-70 2 -73 1 -73
-21 0 -35 -10 -37 -44 -12 -55 41 -130 52 -216 29z m196 -139 c52 -35 70 -118
37 -175 -36 -61 -136 -82 -204 -42 -94 56 -71 206 36 236 32 9 103 -1 131 -19z"/>
<path d="M6682 1614 c-24 -7 -51 -19 -60 -27 -32 -27 -39 -27 -38 1 1 27 1 27
-71 28 -60 1 -73 -2 -74 -15 0 -9 -1 -128 -2 -266 l0 -250 76 -3 c42 -2 77 1
78 5 1 4 2 76 3 158 1 97 6 161 14 181 16 38 59 64 107 64 46 0 94 -44 96 -87
1 -15 1 -94 2 -175 l1 -148 78 0 78 0 0 155 c0 175 9 214 59 239 63 33 130 12
150 -46 6 -17 11 -102 11 -190 l0 -159 78 3 77 3 0 191 c-1 184 -1 192 -26
240 -33 64 -93 102 -169 107 -70 5 -144 -17 -183 -53 l-31 -29 -37 34 c-53 47
-138 63 -217 39z"/>
<path d="M8893 1619 c-80 -15 -158 -72 -196 -143 -17 -33 -22 -58 -22 -126 0
-95 14 -135 68 -190 85 -87 245 -113 359 -57 105 51 160 144 153 257 -6 93
-21 127 -79 184 -67 66 -174 94 -283 75z m118 -131 c67 -23 99 -90 84 -178
-21 -123 -194 -149 -251 -38 -19 36 -20 109 -3 150 16 38 72 74 120 77 9 1 31
-4 50 -11z"/>
<path d="M9527 1619 c-56 -13 -98 -37 -135 -77 -48 -52 -64 -97 -65 -177 -1
-59 4 -79 28 -123 45 -83 120 -129 217 -133 74 -4 149 16 169 45 14 19 27 -5
20 -37 -17 -75 -54 -106 -132 -111 -60 -4 -147 14 -185 39 -29 19 -30 18 -67
-47 l-27 -46 36 -22 c69 -40 231 -63 319 -45 50 10 116 44 142 72 14 14 34 47
46 72 19 43 21 65 21 316 l1 270 -70 0 c-69 0 -70 0 -75 -29 -4 -26 -7 -28
-20 -15 -43 43 -149 65 -223 48z m172 -139 c56 -29 79 -114 49 -177 -15 -32
-85 -72 -120 -68 -13 1 -33 3 -46 4 -12 0 -38 16 -57 34 -72 67 -50 182 41
215 33 12 105 8 133 -8z"/>
<path d="M10177 1614 c-46 -11 -109 -36 -125 -49 -2 -1 9 -27 24 -57 l26 -54
49 23 c52 25 127 32 170 15 32 -13 59 -48 59 -77 0 -19 -7 -20 -98 -21 -113
-1 -168 -14 -206 -49 -66 -61 -61 -171 11 -229 75 -59 214 -59 278 0 26 24 32
22 29 -13 -1 -22 2 -23 73 -23 l74 0 -2 189 c-1 202 -9 237 -58 288 -58 61
-185 85 -304 57z m206 -344 c-1 -25 -11 -43 -33 -62 -58 -53 -170 -29 -170 36
0 46 35 61 145 61 l60 -1 -2 -34z"/>
<path d="M10933 1615 c-22 -7 -55 -22 -72 -34 l-31 -22 0 30 0 30 -75 -2 -75
-1 0 -268 0 -268 78 0 77 0 1 158 c1 175 11 209 64 237 44 23 104 19 135 -7
35 -31 41 -67 40 -240 l0 -148 77 0 78 0 0 182 c0 192 -6 228 -48 286 -46 64
-158 94 -249 67z"/>
<path d="M5749 1586 c-5 -195 2 -338 17 -377 36 -94 114 -140 227 -134 54 3
137 38 137 57 0 5 4 7 9 3 5 -3 8 -17 5 -30 -4 -25 -4 -25 73 -25 l78 0 -2
243 c-1 133 -2 254 -2 268 -1 26 -2 27 -76 26 -41 0 -75 -3 -76 -6 -1 -3 -2
-73 -3 -156 -1 -96 -6 -161 -14 -181 -34 -81 -171 -89 -204 -11 -9 22 -13 81
-13 190 0 180 8 166 -97 165 -58 -1 -58 -1 -59 -32z"/>
</g>
</svg>
