<svg width="23" height="23" viewBox="0 0 23 23" fill="none" xmlns="http://www.w3.org/2000/svg">
<g clip-path="url(#clip0_5:59)">
<path d="M22.9323 6.77861C22.9194 5.81086 22.7382 4.85272 22.3969 3.94706C22.1009 3.18314 21.6488 2.48937 21.0695 1.91006C20.4902 1.33076 19.7964 0.878668 19.0325 0.58267C18.1385 0.247071 17.194 0.0656062 16.2393 0.0460035C15.01 -0.00894093 14.6203 -0.0242743 11.5 -0.0242743C8.37965 -0.0242743 7.97971 -0.0242743 6.75943 0.0460035C5.80514 0.0657503 4.8611 0.247213 3.96749 0.58267C3.20345 0.878462 2.50957 1.33048 1.93024 1.90981C1.35091 2.48914 0.898891 3.18302 0.603099 3.94706C0.266828 4.84039 0.0857566 5.78464 0.0677103 6.739C0.0127659 7.9695 -0.00384521 8.35923 -0.00384521 11.4796C-0.00384521 14.5999 -0.00384522 14.9986 0.0677103 16.2201C0.086877 17.1759 0.267044 18.1189 0.603099 19.0146C0.899387 19.7784 1.35174 20.472 1.93127 21.0511C2.51079 21.6302 3.20474 22.082 3.96877 22.3777C4.85993 22.7268 5.80413 22.9213 6.76071 22.9527C7.99121 23.0077 8.38093 23.0243 11.5013 23.0243C14.6216 23.0243 15.0215 23.0243 16.2418 22.9527C17.1965 22.9339 18.1411 22.7529 19.035 22.4173C19.7988 22.121 20.4924 21.6688 21.0716 21.0895C21.6509 20.5103 22.1031 19.8167 22.3994 19.0529C22.7355 18.1585 22.9157 17.2155 22.9348 16.2584C22.9898 15.0292 23.0064 14.6395 23.0064 11.5179C23.0038 8.39756 23.0038 8.00145 22.9323 6.77861ZM11.4923 17.3803C8.22888 17.3803 5.58515 14.7366 5.58515 11.4732C5.58515 8.20973 8.22888 5.566 11.4923 5.566C13.059 5.566 14.5615 6.18836 15.6693 7.29617C16.7771 8.40398 17.3995 9.90649 17.3995 11.4732C17.3995 13.0398 16.7771 14.5424 15.6693 15.6502C14.5615 16.758 13.059 17.3803 11.4923 17.3803ZM17.6346 6.72495C17.4537 6.72512 17.2745 6.6896 17.1073 6.62044C16.9401 6.55128 16.7882 6.44982 16.6602 6.32188C16.5323 6.19394 16.4308 6.04202 16.3617 5.87483C16.2925 5.70763 16.257 5.52844 16.2572 5.3475C16.2572 5.1667 16.2928 4.98766 16.362 4.82062C16.4311 4.65358 16.5326 4.5018 16.6604 4.37395C16.7883 4.24611 16.94 4.14469 17.1071 4.0755C17.2741 4.00631 17.4532 3.9707 17.634 3.9707C17.8148 3.9707 17.9938 4.00631 18.1608 4.0755C18.3279 4.14469 18.4797 4.24611 18.6075 4.37395C18.7354 4.5018 18.8368 4.65358 18.906 4.82062C18.9752 4.98766 19.0108 5.1667 19.0108 5.3475C19.0108 6.10906 18.3949 6.72495 17.6346 6.72495Z" fill="black"/>
<path d="M11.4923 15.3103C13.6115 15.3103 15.3295 13.5924 15.3295 11.4732C15.3295 9.35396 13.6115 7.636 11.4923 7.636C9.37311 7.636 7.65515 9.35396 7.65515 11.4732C7.65515 13.5924 9.37311 15.3103 11.4923 15.3103Z" fill="black"/>
</g>
<defs>
<clipPath id="clip0_5:59">
<rect width="23" height="23" fill="white"/>
</clipPath>
</defs>
</svg>
